# xmcd CD database file
# Generated: Wed Jul 10 04:11:30 2002 by KSCD
# 
# Track frame offsets:
#       150
#       872
#       13797
#       21963
#       34989
#       43428
#       56408
#       64852
#       77825
#       86233
#       99095
#       107762
#       120788
#       129093
#       141991
#       150651
#       163491
#       171783
#       184791
#       193205
#       206104
#       214394
#       233419
#       245647
#       258610
#       268042
#       281067
#       289240
#
# Disc length: 3892 seconds
#
# Revision: 2
# Processed by: cddbd v1.4PL0 Copyright (c) Steve Scherf et al.
# Submitted via: Kscd 1.3.3
#
DISCID=9b0f321c
DTITLE=Steve Kaufman - 4 Hour Banjo Bluegrass Workout CD4
DYEAR=1900
DGENRE=
TTITLE0=Greeting
TTITLE1=Red-Haired Boy (S)
TTITLE2=Red-Haired Boy (F)
TTITLE3=Red Wing (S)
TTITLE4=Red Wing (F)
TTITLE5=Rickett's Hornpipe (S)
TTITLE6=Rickett's Hornpipe (F)
TTITLE7=Sail Away Ladies (S)
TTITLE8=Sail Away Ladies (F)
TTITLE9=Salt Creek (S)
TTITLE10=Salt Creek (F)
TTITLE11=Soldier's Joy (S)
TTITLE12=Soldier's Joy (F)
TTITLE13=St. Anne's Reel (S)
TTITLE14=St. Anne's Reel (F)
TTITLE15=Staten Island Hornpipe (S)
TTITLE16=Staten Island Hornpipe (F)
TTITLE17=Stony Point (S)
TTITLE18=Stony Point (F)
TTITLE19=Temperance Reel (S)
TTITLE20=Temperance Reel (F)
TTITLE21=Texas Gales (S)
TTITLE22=Texas Gales (F)
TTITLE23=Turkey In The Straw (S)
TTITLE24=Turkey In The Straw (F)
TTITLE25=Whiskey Before Breakfast (S)
TTITLE26=Whiskey Before Breakfast (F)
TTITLE27=Sign off
EXTD=
EXTT0=
EXTT1=
EXTT2=
EXTT3=
EXTT4=
EXTT5=
EXTT6=
EXTT7=
EXTT8=
EXTT9=
EXTT10=
EXTT11=
EXTT12=
EXTT13=
EXTT14=
EXTT15=
EXTT16=
EXTT17=
EXTT18=
EXTT19=
EXTT20=
EXTT21=
EXTT22=
EXTT23=
EXTT24=
EXTT25=
EXTT26=
EXTT27=
PLAYORDER=
